<mxfile host="Electron" modified="2023-09-28T15:37:51.079Z" agent="Mozilla/5.0 (Windows NT 10.0; Win64; x64) AppleWebKit/537.36 (KHTML, like Gecko) draw.io/22.0.0 Chrome/114.0.5735.289 Electron/25.8.3 Safari/537.36" etag="aAAWK7lQgrNSS5_Q5V4A" version="22.0.0" type="device">
  <diagram name="Страница — 1" id="j_K1qUWvfC-UuuH-gesG">
    <mxGraphModel dx="3860" dy="1298" grid="1" gridSize="10" guides="1" tooltips="1" connect="1" arrows="1" fold="1" page="1" pageScale="1" pageWidth="827" pageHeight="1169" background="#211A1F" math="0" shadow="0">
      <root>
        <mxCell id="0" />
        <mxCell id="1" parent="0" />
        <mxCell id="zIfas-nL6Hos0HgjgYEB-2" value="Клиент" style="shape=umlActor;verticalLabelPosition=bottom;verticalAlign=top;html=1;outlineConnect=0;" vertex="1" parent="1">
          <mxGeometry x="-1624" y="50" width="30" height="60" as="geometry" />
        </mxCell>
        <mxCell id="zIfas-nL6Hos0HgjgYEB-4" value="Кладовщик" style="shape=umlActor;verticalLabelPosition=bottom;verticalAlign=top;html=1;outlineConnect=0;" vertex="1" parent="1">
          <mxGeometry x="-1141" y="50" width="30" height="60" as="geometry" />
        </mxCell>
        <mxCell id="zIfas-nL6Hos0HgjgYEB-5" value="Менеджер" style="shape=umlActor;verticalLabelPosition=bottom;verticalAlign=top;html=1;outlineConnect=0;" vertex="1" parent="1">
          <mxGeometry x="-1461" y="50" width="30" height="60" as="geometry" />
        </mxCell>
        <mxCell id="zIfas-nL6Hos0HgjgYEB-6" value="Бухгалтер" style="shape=umlActor;verticalLabelPosition=bottom;verticalAlign=top;html=1;outlineConnect=0;" vertex="1" parent="1">
          <mxGeometry x="-1301" y="50" width="30" height="60" as="geometry" />
        </mxCell>
        <mxCell id="zIfas-nL6Hos0HgjgYEB-7" value="" style="rounded=0;whiteSpace=wrap;html=1;" vertex="1" parent="1">
          <mxGeometry x="-1614" y="147" width="10" height="313" as="geometry" />
        </mxCell>
        <mxCell id="zIfas-nL6Hos0HgjgYEB-8" value="" style="rounded=0;whiteSpace=wrap;html=1;" vertex="1" parent="1">
          <mxGeometry x="-1452" y="147" width="10" height="313" as="geometry" />
        </mxCell>
        <mxCell id="zIfas-nL6Hos0HgjgYEB-9" value="" style="endArrow=none;dashed=1;html=1;rounded=0;exitX=0.5;exitY=0;exitDx=0;exitDy=0;" edge="1" parent="1" source="zIfas-nL6Hos0HgjgYEB-8" target="zIfas-nL6Hos0HgjgYEB-5">
          <mxGeometry width="50" height="50" relative="1" as="geometry">
            <mxPoint x="-1201" y="147" as="sourcePoint" />
            <mxPoint x="-1151" y="97" as="targetPoint" />
          </mxGeometry>
        </mxCell>
        <mxCell id="zIfas-nL6Hos0HgjgYEB-10" value="" style="endArrow=block;html=1;rounded=0;endFill=1;exitX=1.011;exitY=0.066;exitDx=0;exitDy=0;exitPerimeter=0;entryX=0.033;entryY=0.067;entryDx=0;entryDy=0;entryPerimeter=0;" edge="1" parent="1" source="zIfas-nL6Hos0HgjgYEB-7" target="zIfas-nL6Hos0HgjgYEB-8">
          <mxGeometry width="50" height="50" relative="1" as="geometry">
            <mxPoint x="-1594" y="172" as="sourcePoint" />
            <mxPoint x="-1394" y="172" as="targetPoint" />
          </mxGeometry>
        </mxCell>
        <mxCell id="zIfas-nL6Hos0HgjgYEB-11" value="Создание заказа" style="edgeLabel;html=1;align=center;verticalAlign=middle;resizable=0;points=[];" vertex="1" connectable="0" parent="zIfas-nL6Hos0HgjgYEB-10">
          <mxGeometry x="0.0076" y="2" relative="1" as="geometry">
            <mxPoint x="-9" y="-12" as="offset" />
          </mxGeometry>
        </mxCell>
        <mxCell id="zIfas-nL6Hos0HgjgYEB-14" value="" style="endArrow=block;html=1;rounded=0;endFill=1;entryX=0.153;entryY=0.15;entryDx=0;entryDy=0;entryPerimeter=0;exitX=1.2;exitY=0.17;exitDx=0;exitDy=0;exitPerimeter=0;" edge="1" parent="1" source="zIfas-nL6Hos0HgjgYEB-8" target="zIfas-nL6Hos0HgjgYEB-13">
          <mxGeometry width="50" height="50" relative="1" as="geometry">
            <mxPoint x="-1442" y="184" as="sourcePoint" />
            <mxPoint x="379" y="157" as="targetPoint" />
          </mxGeometry>
        </mxCell>
        <mxCell id="zIfas-nL6Hos0HgjgYEB-15" value="Проверка наличия товара на складе" style="edgeLabel;html=1;align=center;verticalAlign=middle;resizable=0;points=[];" vertex="1" connectable="0" parent="zIfas-nL6Hos0HgjgYEB-14">
          <mxGeometry x="-0.0292" y="1" relative="1" as="geometry">
            <mxPoint y="-10" as="offset" />
          </mxGeometry>
        </mxCell>
        <mxCell id="zIfas-nL6Hos0HgjgYEB-16" value="" style="endArrow=none;dashed=1;html=1;rounded=0;endFill=0;startArrow=open;startFill=0;exitX=1.117;exitY=0.391;exitDx=0;exitDy=0;exitPerimeter=0;entryX=-0.022;entryY=0.921;entryDx=0;entryDy=0;entryPerimeter=0;" edge="1" parent="1" source="zIfas-nL6Hos0HgjgYEB-8" target="zIfas-nL6Hos0HgjgYEB-13">
          <mxGeometry width="50" height="50" relative="1" as="geometry">
            <mxPoint x="199" y="240" as="sourcePoint" />
            <mxPoint x="1329" y="240" as="targetPoint" />
          </mxGeometry>
        </mxCell>
        <mxCell id="zIfas-nL6Hos0HgjgYEB-17" value="&amp;lt;&amp;lt;return&amp;gt;&amp;gt;" style="edgeLabel;html=1;align=center;verticalAlign=middle;resizable=0;points=[];" vertex="1" connectable="0" parent="zIfas-nL6Hos0HgjgYEB-16">
          <mxGeometry x="0.1562" y="2" relative="1" as="geometry">
            <mxPoint x="-97" y="-11" as="offset" />
          </mxGeometry>
        </mxCell>
        <mxCell id="zIfas-nL6Hos0HgjgYEB-18" value="" style="endArrow=block;html=1;rounded=0;endFill=1;exitX=1.117;exitY=0.554;exitDx=0;exitDy=0;exitPerimeter=0;entryX=-0.034;entryY=0.088;entryDx=0;entryDy=0;entryPerimeter=0;" edge="1" parent="1" source="zIfas-nL6Hos0HgjgYEB-8" target="zIfas-nL6Hos0HgjgYEB-94">
          <mxGeometry width="50" height="50" relative="1" as="geometry">
            <mxPoint x="-1431" y="317" as="sourcePoint" />
            <mxPoint x="-1271" y="270" as="targetPoint" />
          </mxGeometry>
        </mxCell>
        <mxCell id="zIfas-nL6Hos0HgjgYEB-19" value="Оформление&amp;nbsp;заказа" style="edgeLabel;html=1;align=center;verticalAlign=middle;resizable=0;points=[];" vertex="1" connectable="0" parent="zIfas-nL6Hos0HgjgYEB-18">
          <mxGeometry x="0.1" y="-1" relative="1" as="geometry">
            <mxPoint x="-12" y="-14" as="offset" />
          </mxGeometry>
        </mxCell>
        <mxCell id="zIfas-nL6Hos0HgjgYEB-23" value="" style="endArrow=none;dashed=1;html=1;rounded=0;exitX=0.5;exitY=0;exitDx=0;exitDy=0;" edge="1" parent="1" source="zIfas-nL6Hos0HgjgYEB-7" target="zIfas-nL6Hos0HgjgYEB-2">
          <mxGeometry width="50" height="50" relative="1" as="geometry">
            <mxPoint x="-1594" y="187" as="sourcePoint" />
            <mxPoint x="-1544" y="137" as="targetPoint" />
          </mxGeometry>
        </mxCell>
        <mxCell id="zIfas-nL6Hos0HgjgYEB-35" value="" style="endArrow=none;dashed=1;html=1;rounded=0;exitX=0.5;exitY=0;exitDx=0;exitDy=0;" edge="1" parent="1" source="zIfas-nL6Hos0HgjgYEB-94">
          <mxGeometry width="50" height="50" relative="1" as="geometry">
            <mxPoint x="-1286" y="537" as="sourcePoint" />
            <mxPoint x="-1286" y="117" as="targetPoint" />
          </mxGeometry>
        </mxCell>
        <mxCell id="zIfas-nL6Hos0HgjgYEB-36" value="" style="rounded=0;whiteSpace=wrap;html=1;" vertex="1" parent="1">
          <mxGeometry x="-1291" y="510" width="10" height="270" as="geometry" />
        </mxCell>
        <mxCell id="zIfas-nL6Hos0HgjgYEB-38" value="" style="endArrow=none;dashed=1;html=1;rounded=0;entryX=0.25;entryY=1;entryDx=0;entryDy=0;" edge="1" parent="1" target="zIfas-nL6Hos0HgjgYEB-8">
          <mxGeometry width="50" height="50" relative="1" as="geometry">
            <mxPoint x="-1451" y="1110" as="sourcePoint" />
            <mxPoint x="-1171" y="757" as="targetPoint" />
          </mxGeometry>
        </mxCell>
        <mxCell id="zIfas-nL6Hos0HgjgYEB-41" value="" style="html=1;verticalAlign=bottom;endArrow=open;dashed=1;endSize=8;curved=0;rounded=0;entryX=1;entryY=1;entryDx=0;entryDy=0;" edge="1" parent="1">
          <mxGeometry x="0.006" relative="1" as="geometry">
            <mxPoint x="-1451" y="444" as="sourcePoint" />
            <mxPoint x="-1604" y="444" as="targetPoint" />
            <mxPoint as="offset" />
          </mxGeometry>
        </mxCell>
        <mxCell id="zIfas-nL6Hos0HgjgYEB-42" value="" style="endArrow=none;dashed=1;html=1;rounded=0;exitX=0.5;exitY=0;exitDx=0;exitDy=0;" edge="1" parent="1" source="zIfas-nL6Hos0HgjgYEB-43">
          <mxGeometry width="50" height="50" relative="1" as="geometry">
            <mxPoint x="-1608.75" y="687" as="sourcePoint" />
            <mxPoint x="-1611" y="460" as="targetPoint" />
          </mxGeometry>
        </mxCell>
        <mxCell id="zIfas-nL6Hos0HgjgYEB-43" value="" style="rounded=0;whiteSpace=wrap;html=1;" vertex="1" parent="1">
          <mxGeometry x="-1614" y="510" width="10" height="270" as="geometry" />
        </mxCell>
        <mxCell id="zIfas-nL6Hos0HgjgYEB-50" value="Оплата" style="html=1;verticalAlign=bottom;endArrow=block;curved=0;rounded=0;exitX=1.01;exitY=0.033;exitDx=0;exitDy=0;exitPerimeter=0;entryX=-0.081;entryY=0.289;entryDx=0;entryDy=0;entryPerimeter=0;" edge="1" parent="1">
          <mxGeometry width="80" relative="1" as="geometry">
            <mxPoint x="-1603.6799999999998" y="519.9999999999999" as="sourcePoint" />
            <mxPoint x="-1291.59" y="520.3000000000001" as="targetPoint" />
          </mxGeometry>
        </mxCell>
        <mxCell id="zIfas-nL6Hos0HgjgYEB-51" value="&amp;lt;&amp;lt;return&amp;gt;&amp;gt;" style="html=1;verticalAlign=bottom;endArrow=open;dashed=1;endSize=8;curved=0;rounded=0;entryX=1.01;entryY=0.366;entryDx=0;entryDy=0;entryPerimeter=0;exitX=-0.05;exitY=0.534;exitDx=0;exitDy=0;exitPerimeter=0;" edge="1" parent="1">
          <mxGeometry relative="1" as="geometry">
            <mxPoint x="-1291.28" y="650.15" as="sourcePoint" />
            <mxPoint x="-1603.6799999999998" y="649.87" as="targetPoint" />
          </mxGeometry>
        </mxCell>
        <mxCell id="zIfas-nL6Hos0HgjgYEB-65" value="" style="endArrow=open;endFill=1;endSize=12;html=1;rounded=0;entryX=0.926;entryY=0.955;entryDx=0;entryDy=0;entryPerimeter=0;exitX=-0.022;exitY=0.968;exitDx=0;exitDy=0;exitPerimeter=0;" edge="1" parent="1">
          <mxGeometry width="160" relative="1" as="geometry">
            <mxPoint x="-1290.9999999999998" y="761.9000000000001" as="sourcePoint" />
            <mxPoint x="-1604.5199999999998" y="761.31" as="targetPoint" />
          </mxGeometry>
        </mxCell>
        <mxCell id="zIfas-nL6Hos0HgjgYEB-66" value="Передача Накладной клиенту" style="edgeLabel;html=1;align=center;verticalAlign=middle;resizable=0;points=[];" vertex="1" connectable="0" parent="zIfas-nL6Hos0HgjgYEB-65">
          <mxGeometry x="0.3005" y="-2" relative="1" as="geometry">
            <mxPoint x="49" y="-18" as="offset" />
          </mxGeometry>
        </mxCell>
        <mxCell id="zIfas-nL6Hos0HgjgYEB-68" value="" style="endArrow=none;dashed=1;html=1;rounded=0;entryX=0.5;entryY=1;entryDx=0;entryDy=0;" edge="1" parent="1" target="zIfas-nL6Hos0HgjgYEB-43">
          <mxGeometry width="50" height="50" relative="1" as="geometry">
            <mxPoint x="-1609" y="1110" as="sourcePoint" />
            <mxPoint x="-1204" y="1157" as="targetPoint" />
          </mxGeometry>
        </mxCell>
        <mxCell id="zIfas-nL6Hos0HgjgYEB-69" value="" style="rounded=0;whiteSpace=wrap;html=1;" vertex="1" parent="1">
          <mxGeometry x="-1614" y="844.5" width="10" height="250" as="geometry" />
        </mxCell>
        <mxCell id="zIfas-nL6Hos0HgjgYEB-70" value="" style="endArrow=none;dashed=1;html=1;rounded=0;" edge="1" parent="1" source="zIfas-nL6Hos0HgjgYEB-73" target="zIfas-nL6Hos0HgjgYEB-4">
          <mxGeometry width="50" height="50" relative="1" as="geometry">
            <mxPoint x="-1126" y="1427" as="sourcePoint" />
            <mxPoint x="-1351" y="637" as="targetPoint" />
          </mxGeometry>
        </mxCell>
        <mxCell id="zIfas-nL6Hos0HgjgYEB-71" value="склад" style="rounded=0;whiteSpace=wrap;html=1;" vertex="1" parent="1">
          <mxGeometry x="-976.76" y="50" width="120" height="60" as="geometry" />
        </mxCell>
        <mxCell id="zIfas-nL6Hos0HgjgYEB-72" value="" style="endArrow=none;dashed=1;html=1;rounded=0;" edge="1" parent="1" target="zIfas-nL6Hos0HgjgYEB-73">
          <mxGeometry width="50" height="50" relative="1" as="geometry">
            <mxPoint x="-1126" y="971.5" as="sourcePoint" />
            <mxPoint x="-1126" y="-345.5" as="targetPoint" />
          </mxGeometry>
        </mxCell>
        <mxCell id="zIfas-nL6Hos0HgjgYEB-73" value="" style="rounded=0;whiteSpace=wrap;html=1;" vertex="1" parent="1">
          <mxGeometry x="-1131" y="844.5" width="10" height="250" as="geometry" />
        </mxCell>
        <mxCell id="zIfas-nL6Hos0HgjgYEB-74" value="" style="endArrow=block;html=1;rounded=0;endFill=1;exitX=0.96;exitY=0.022;exitDx=0;exitDy=0;exitPerimeter=0;entryX=-0.036;entryY=0.022;entryDx=0;entryDy=0;entryPerimeter=0;" edge="1" parent="1" source="zIfas-nL6Hos0HgjgYEB-69" target="zIfas-nL6Hos0HgjgYEB-73">
          <mxGeometry width="50" height="50" relative="1" as="geometry">
            <mxPoint x="-1591" y="844.5" as="sourcePoint" />
            <mxPoint x="-514" y="854.5" as="targetPoint" />
          </mxGeometry>
        </mxCell>
        <mxCell id="zIfas-nL6Hos0HgjgYEB-75" value="Предоставление накладной&amp;nbsp;" style="edgeLabel;html=1;align=center;verticalAlign=middle;resizable=0;points=[];" vertex="1" connectable="0" parent="zIfas-nL6Hos0HgjgYEB-74">
          <mxGeometry x="-0.0239" y="4" relative="1" as="geometry">
            <mxPoint x="28" y="-6" as="offset" />
          </mxGeometry>
        </mxCell>
        <mxCell id="zIfas-nL6Hos0HgjgYEB-76" value="" style="endArrow=none;dashed=1;html=1;rounded=0;entryX=0.5;entryY=1;entryDx=0;entryDy=0;" edge="1" parent="1" source="zIfas-nL6Hos0HgjgYEB-13" target="zIfas-nL6Hos0HgjgYEB-71">
          <mxGeometry width="50" height="50" relative="1" as="geometry">
            <mxPoint x="-916.76" y="1677" as="sourcePoint" />
            <mxPoint x="-1016.76" y="267" as="targetPoint" />
          </mxGeometry>
        </mxCell>
        <mxCell id="zIfas-nL6Hos0HgjgYEB-83" value="" style="endArrow=none;dashed=1;html=1;rounded=0;entryX=0.5;entryY=1;entryDx=0;entryDy=0;" edge="1" parent="1" target="zIfas-nL6Hos0HgjgYEB-84">
          <mxGeometry width="50" height="50" relative="1" as="geometry">
            <mxPoint x="-917" y="1110" as="sourcePoint" />
            <mxPoint x="-916.76" y="-522.5" as="targetPoint" />
          </mxGeometry>
        </mxCell>
        <mxCell id="zIfas-nL6Hos0HgjgYEB-84" value="" style="rounded=0;whiteSpace=wrap;html=1;" vertex="1" parent="1">
          <mxGeometry x="-921.76" y="904.5" width="10" height="120" as="geometry" />
        </mxCell>
        <mxCell id="zIfas-nL6Hos0HgjgYEB-85" value="" style="endArrow=classic;html=1;rounded=0;exitX=1.062;exitY=0.543;exitDx=0;exitDy=0;exitPerimeter=0;entryX=-0.08;entryY=0.103;entryDx=0;entryDy=0;entryPerimeter=0;" edge="1" parent="1" target="zIfas-nL6Hos0HgjgYEB-84">
          <mxGeometry width="50" height="50" relative="1" as="geometry">
            <mxPoint x="-1120.38" y="917.2799999999997" as="sourcePoint" />
            <mxPoint x="-871" y="904.5" as="targetPoint" />
          </mxGeometry>
        </mxCell>
        <mxCell id="zIfas-nL6Hos0HgjgYEB-86" value="Взятие товара на складе" style="edgeLabel;html=1;align=center;verticalAlign=middle;resizable=0;points=[];" vertex="1" connectable="0" parent="zIfas-nL6Hos0HgjgYEB-85">
          <mxGeometry x="-0.0361" y="1" relative="1" as="geometry">
            <mxPoint x="3" y="-11" as="offset" />
          </mxGeometry>
        </mxCell>
        <mxCell id="zIfas-nL6Hos0HgjgYEB-87" value="" style="endArrow=none;dashed=1;html=1;rounded=0;endFill=0;startArrow=open;startFill=0;exitX=1.151;exitY=0.798;exitDx=0;exitDy=0;exitPerimeter=0;entryX=-0.048;entryY=0.894;entryDx=0;entryDy=0;entryPerimeter=0;" edge="1" parent="1" target="zIfas-nL6Hos0HgjgYEB-84">
          <mxGeometry width="50" height="50" relative="1" as="geometry">
            <mxPoint x="-1121" y="1011.5800000000004" as="sourcePoint" />
            <mxPoint x="-924.5900000000001" y="1011.6600000000003" as="targetPoint" />
          </mxGeometry>
        </mxCell>
        <mxCell id="zIfas-nL6Hos0HgjgYEB-88" value="&amp;lt;&amp;lt;return&amp;gt;&amp;gt;" style="edgeLabel;html=1;align=center;verticalAlign=middle;resizable=0;points=[];" vertex="1" connectable="0" parent="zIfas-nL6Hos0HgjgYEB-87">
          <mxGeometry x="0.075" y="3" relative="1" as="geometry">
            <mxPoint x="-7" y="-7" as="offset" />
          </mxGeometry>
        </mxCell>
        <mxCell id="zIfas-nL6Hos0HgjgYEB-89" value="" style="endArrow=none;dashed=1;html=1;rounded=0;endFill=0;startArrow=open;startFill=0;entryX=0.005;entryY=0.959;entryDx=0;entryDy=0;entryPerimeter=0;exitX=0.972;exitY=0.957;exitDx=0;exitDy=0;exitPerimeter=0;" edge="1" parent="1">
          <mxGeometry width="50" height="50" relative="1" as="geometry">
            <mxPoint x="-1604.3300000000002" y="1074.1399999999999" as="sourcePoint" />
            <mxPoint x="-1130.9999999999998" y="1075.0599999999995" as="targetPoint" />
          </mxGeometry>
        </mxCell>
        <mxCell id="zIfas-nL6Hos0HgjgYEB-90" value="&amp;lt;&amp;lt;return&amp;gt;&amp;gt;" style="edgeLabel;html=1;align=center;verticalAlign=middle;resizable=0;points=[];" vertex="1" connectable="0" parent="zIfas-nL6Hos0HgjgYEB-89">
          <mxGeometry x="-0.2179" y="-3" relative="1" as="geometry">
            <mxPoint x="69" y="-13" as="offset" />
          </mxGeometry>
        </mxCell>
        <mxCell id="zIfas-nL6Hos0HgjgYEB-91" value="" style="endArrow=none;dashed=1;html=1;rounded=0;entryX=0.5;entryY=1;entryDx=0;entryDy=0;" edge="1" parent="1" target="zIfas-nL6Hos0HgjgYEB-13">
          <mxGeometry width="50" height="50" relative="1" as="geometry">
            <mxPoint x="-916.7600000000002" y="312" as="sourcePoint" />
            <mxPoint x="-916.76" y="110" as="targetPoint" />
          </mxGeometry>
        </mxCell>
        <mxCell id="zIfas-nL6Hos0HgjgYEB-13" value="" style="rounded=0;whiteSpace=wrap;html=1;" vertex="1" parent="1">
          <mxGeometry x="-921.76" y="187" width="10" height="90" as="geometry" />
        </mxCell>
        <mxCell id="zIfas-nL6Hos0HgjgYEB-93" value="" style="endArrow=none;dashed=1;html=1;rounded=0;" edge="1" parent="1" source="zIfas-nL6Hos0HgjgYEB-84">
          <mxGeometry width="50" height="50" relative="1" as="geometry">
            <mxPoint x="-917" y="1537" as="sourcePoint" />
            <mxPoint x="-917" y="310" as="targetPoint" />
          </mxGeometry>
        </mxCell>
        <mxCell id="zIfas-nL6Hos0HgjgYEB-95" value="" style="endArrow=none;dashed=1;html=1;rounded=0;exitX=0.5;exitY=0;exitDx=0;exitDy=0;" edge="1" parent="1" source="zIfas-nL6Hos0HgjgYEB-36" target="zIfas-nL6Hos0HgjgYEB-94">
          <mxGeometry width="50" height="50" relative="1" as="geometry">
            <mxPoint x="-1286" y="577" as="sourcePoint" />
            <mxPoint x="-1286" y="117" as="targetPoint" />
          </mxGeometry>
        </mxCell>
        <mxCell id="zIfas-nL6Hos0HgjgYEB-94" value="" style="rounded=0;whiteSpace=wrap;html=1;" vertex="1" parent="1">
          <mxGeometry x="-1291" y="312" width="10" height="90" as="geometry" />
        </mxCell>
        <mxCell id="zIfas-nL6Hos0HgjgYEB-96" value="" style="endArrow=block;html=1;rounded=0;endFill=1;exitX=-0.014;exitY=0.921;exitDx=0;exitDy=0;exitPerimeter=0;entryX=1.2;entryY=0.791;entryDx=0;entryDy=0;entryPerimeter=0;" edge="1" parent="1" source="zIfas-nL6Hos0HgjgYEB-94" target="zIfas-nL6Hos0HgjgYEB-8">
          <mxGeometry width="50" height="50" relative="1" as="geometry">
            <mxPoint x="-1432" y="330" as="sourcePoint" />
            <mxPoint x="-1281" y="330" as="targetPoint" />
          </mxGeometry>
        </mxCell>
        <mxCell id="zIfas-nL6Hos0HgjgYEB-98" value="&amp;lt;&amp;lt;return&amp;gt;&amp;gt;" style="edgeLabel;html=1;align=center;verticalAlign=middle;resizable=0;points=[];" vertex="1" connectable="0" parent="1">
          <mxGeometry x="-1530.9957894736842" y="427" as="geometry" />
        </mxCell>
        <mxCell id="zIfas-nL6Hos0HgjgYEB-103" value="" style="endArrow=none;dashed=1;html=1;rounded=0;entryX=0.5;entryY=1;entryDx=0;entryDy=0;" edge="1" parent="1">
          <mxGeometry width="50" height="50" relative="1" as="geometry">
            <mxPoint x="-1126" y="1110" as="sourcePoint" />
            <mxPoint x="-1126.37" y="1094.5" as="targetPoint" />
          </mxGeometry>
        </mxCell>
        <mxCell id="zIfas-nL6Hos0HgjgYEB-104" value="" style="endArrow=none;dashed=1;html=1;rounded=0;" edge="1" parent="1">
          <mxGeometry width="50" height="50" relative="1" as="geometry">
            <mxPoint x="-1287" y="1110" as="sourcePoint" />
            <mxPoint x="-1286.56" y="780" as="targetPoint" />
          </mxGeometry>
        </mxCell>
      </root>
    </mxGraphModel>
  </diagram>
</mxfile>
